<svg xmlns="http://www.w3.org/2000/svg" version="1.1" xmlns:xlink="http://www.w3.org/1999/xlink" xmlns:svgjs="http://svgjs.dev/svgjs" viewBox="0 0 800 800" opacity="1"><g stroke-width="2" stroke="hsla(234, 20%, 30%, 0.16)" fill="none" stroke-linecap="round" transform="matrix(1,0,0,1,-5,-1562.485523223877)"><path d="M10,10C35.69444444444444,12.708333333333332,79.86111111111111,26.958333333333332,133.33333333333334,23C186.80555555555557,19.041666666666668,211.11111111111114,-7.541666666666666,266.6666666666667,-9C322.22222222222223,-10.458333333333334,344.44444444444446,15.583333333333334,400,16C455.55555555555554,16.416666666666668,477.7777777777778,-9.916666666666668,533.3333333333334,-7C588.8888888888889,-4.083333333333333,611.1111111111112,28.958333333333332,666.6666666666667,30C722.2222222222223,31.041666666666668,772.2222222222223,4.666666666666666,800,-2"></path><path d="M10,10C35.69444444444444,12.708333333333332,79.86111111111111,26.958333333333332,133.33333333333334,23C186.80555555555557,19.041666666666668,211.11111111111114,-7.541666666666666,266.6666666666667,-9C322.22222222222223,-10.458333333333334,344.44444444444446,15.583333333333334,400,16C455.55555555555554,16.416666666666668,477.7777777777778,-9.916666666666668,533.3333333333334,-7C588.8888888888889,-4.083333333333333,611.1111111111112,28.958333333333332,666.6666666666667,30C722.2222222222223,31.041666666666668,772.2222222222223,4.666666666666666,800,-2" transform="matrix(1,0,0,1,0,3904)"></path><path d="M10,10C35.69444444444444,12.708333333333332,79.86111111111111,26.958333333333332,133.33333333333334,23C186.80555555555557,19.041666666666668,211.11111111111114,-7.541666666666666,266.6666666666667,-9C322.22222222222223,-10.458333333333334,344.44444444444446,15.583333333333334,400,16C455.55555555555554,16.416666666666668,477.7777777777778,-9.916666666666668,533.3333333333334,-7C588.8888888888889,-4.083333333333333,611.1111111111112,28.958333333333332,666.6666666666667,30C722.2222222222223,31.041666666666668,772.2222222222223,4.666666666666666,800,-2" transform="matrix(1,0,0,1,0,3843)"></path><path d="M10,10C35.69444444444444,12.708333333333332,79.86111111111111,26.958333333333332,133.33333333333334,23C186.80555555555557,19.041666666666668,211.11111111111114,-7.541666666666666,266.6666666666667,-9C322.22222222222223,-10.458333333333334,344.44444444444446,15.583333333333334,400,16C455.55555555555554,16.416666666666668,477.7777777777778,-9.916666666666668,533.3333333333334,-7C588.8888888888889,-4.083333333333333,611.1111111111112,28.958333333333332,666.6666666666667,30C722.2222222222223,31.041666666666668,772.2222222222223,4.666666666666666,800,-2" transform="matrix(1,0,0,1,0,3782)"></path><path d="M10,10C35.69444444444444,12.708333333333332,79.86111111111111,26.958333333333332,133.33333333333334,23C186.80555555555557,19.041666666666668,211.11111111111114,-7.541666666666666,266.6666666666667,-9C322.22222222222223,-10.458333333333334,344.44444444444446,15.583333333333334,400,16C455.55555555555554,16.416666666666668,477.7777777777778,-9.916666666666668,533.3333333333334,-7C588.8888888888889,-4.083333333333333,611.1111111111112,28.958333333333332,666.6666666666667,30C722.2222222222223,31.041666666666668,772.2222222222223,4.666666666666666,800,-2" transform="matrix(1,0,0,1,0,3721)"></path><path d="M10,10C35.69444444444444,12.708333333333332,79.86111111111111,26.958333333333332,133.33333333333334,23C186.80555555555557,19.041666666666668,211.11111111111114,-7.541666666666666,266.6666666666667,-9C322.22222222222223,-10.458333333333334,344.44444444444446,15.583333333333334,400,16C455.55555555555554,16.416666666666668,477.7777777777778,-9.916666666666668,533.3333333333334,-7C588.8888888888889,-4.083333333333333,611.1111111111112,28.958333333333332,666.6666666666667,30C722.2222222222223,31.041666666666668,772.2222222222223,4.666666666666666,800,-2" transform="matrix(1,0,0,1,0,3660)"></path><path d="M10,10C35.69444444444444,12.708333333333332,79.86111111111111,26.958333333333332,133.33333333333334,23C186.80555555555557,19.041666666666668,211.11111111111114,-7.541666666666666,266.6666666666667,-9C322.22222222222223,-10.458333333333334,344.44444444444446,15.583333333333334,400,16C455.55555555555554,16.416666666666668,477.7777777777778,-9.916666666666668,533.3333333333334,-7C588.8888888888889,-4.083333333333333,611.1111111111112,28.958333333333332,666.6666666666667,30C722.2222222222223,31.041666666666668,772.2222222222223,4.666666666666666,800,-2" transform="matrix(1,0,0,1,0,3599)"></path><path d="M10,10C35.69444444444444,12.708333333333332,79.86111111111111,26.958333333333332,133.33333333333334,23C186.80555555555557,19.041666666666668,211.11111111111114,-7.541666666666666,266.6666666666667,-9C322.22222222222223,-10.458333333333334,344.44444444444446,15.583333333333334,400,16C455.55555555555554,16.416666666666668,477.7777777777778,-9.916666666666668,533.3333333333334,-7C588.8888888888889,-4.083333333333333,611.1111111111112,28.958333333333332,666.6666666666667,30C722.2222222222223,31.041666666666668,772.2222222222223,4.666666666666666,800,-2" transform="matrix(1,0,0,1,0,3538)"></path><path d="M10,10C35.69444444444444,12.708333333333332,79.86111111111111,26.958333333333332,133.33333333333334,23C186.80555555555557,19.041666666666668,211.11111111111114,-7.541666666666666,266.6666666666667,-9C322.22222222222223,-10.458333333333334,344.44444444444446,15.583333333333334,400,16C455.55555555555554,16.416666666666668,477.7777777777778,-9.916666666666668,533.3333333333334,-7C588.8888888888889,-4.083333333333333,611.1111111111112,28.958333333333332,666.6666666666667,30C722.2222222222223,31.041666666666668,772.2222222222223,4.666666666666666,800,-2" transform="matrix(1,0,0,1,0,3477)"></path><path d="M10,10C35.69444444444444,12.708333333333332,79.86111111111111,26.958333333333332,133.33333333333334,23C186.80555555555557,19.041666666666668,211.11111111111114,-7.541666666666666,266.6666666666667,-9C322.22222222222223,-10.458333333333334,344.44444444444446,15.583333333333334,400,16C455.55555555555554,16.416666666666668,477.7777777777778,-9.916666666666668,533.3333333333334,-7C588.8888888888889,-4.083333333333333,611.1111111111112,28.958333333333332,666.6666666666667,30C722.2222222222223,31.041666666666668,772.2222222222223,4.666666666666666,800,-2" transform="matrix(1,0,0,1,0,3416)"></path><path d="M10,10C35.69444444444444,12.708333333333332,79.86111111111111,26.958333333333332,133.33333333333334,23C186.80555555555557,19.041666666666668,211.11111111111114,-7.541666666666666,266.6666666666667,-9C322.22222222222223,-10.458333333333334,344.44444444444446,15.583333333333334,400,16C455.55555555555554,16.416666666666668,477.7777777777778,-9.916666666666668,533.3333333333334,-7C588.8888888888889,-4.083333333333333,611.1111111111112,28.958333333333332,666.6666666666667,30C722.2222222222223,31.041666666666668,772.2222222222223,4.666666666666666,800,-2" transform="matrix(1,0,0,1,0,3355)"></path><path d="M10,10C35.69444444444444,12.708333333333332,79.86111111111111,26.958333333333332,133.33333333333334,23C186.80555555555557,19.041666666666668,211.11111111111114,-7.541666666666666,266.6666666666667,-9C322.22222222222223,-10.458333333333334,344.44444444444446,15.583333333333334,400,16C455.55555555555554,16.416666666666668,477.7777777777778,-9.916666666666668,533.3333333333334,-7C588.8888888888889,-4.083333333333333,611.1111111111112,28.958333333333332,666.6666666666667,30C722.2222222222223,31.041666666666668,772.2222222222223,4.666666666666666,800,-2" transform="matrix(1,0,0,1,0,3294)"></path><path d="M10,10C35.69444444444444,12.708333333333332,79.86111111111111,26.958333333333332,133.33333333333334,23C186.80555555555557,19.041666666666668,211.11111111111114,-7.541666666666666,266.6666666666667,-9C322.22222222222223,-10.458333333333334,344.44444444444446,15.583333333333334,400,16C455.55555555555554,16.416666666666668,477.7777777777778,-9.916666666666668,533.3333333333334,-7C588.8888888888889,-4.083333333333333,611.1111111111112,28.958333333333332,666.6666666666667,30C722.2222222222223,31.041666666666668,772.2222222222223,4.666666666666666,800,-2" transform="matrix(1,0,0,1,0,3233)"></path><path d="M10,10C35.69444444444444,12.708333333333332,79.86111111111111,26.958333333333332,133.33333333333334,23C186.80555555555557,19.041666666666668,211.11111111111114,-7.541666666666666,266.6666666666667,-9C322.22222222222223,-10.458333333333334,344.44444444444446,15.583333333333334,400,16C455.55555555555554,16.416666666666668,477.7777777777778,-9.916666666666668,533.3333333333334,-7C588.8888888888889,-4.083333333333333,611.1111111111112,28.958333333333332,666.6666666666667,30C722.2222222222223,31.041666666666668,772.2222222222223,4.666666666666666,800,-2" transform="matrix(1,0,0,1,0,3172)"></path><path d="M10,10C35.69444444444444,12.708333333333332,79.86111111111111,26.958333333333332,133.33333333333334,23C186.80555555555557,19.041666666666668,211.11111111111114,-7.541666666666666,266.6666666666667,-9C322.22222222222223,-10.458333333333334,344.44444444444446,15.583333333333334,400,16C455.55555555555554,16.416666666666668,477.7777777777778,-9.916666666666668,533.3333333333334,-7C588.8888888888889,-4.083333333333333,611.1111111111112,28.958333333333332,666.6666666666667,30C722.2222222222223,31.041666666666668,772.2222222222223,4.666666666666666,800,-2" transform="matrix(1,0,0,1,0,3111)"></path><path d="M10,10C35.69444444444444,12.708333333333332,79.86111111111111,26.958333333333332,133.33333333333334,23C186.80555555555557,19.041666666666668,211.11111111111114,-7.541666666666666,266.6666666666667,-9C322.22222222222223,-10.458333333333334,344.44444444444446,15.583333333333334,400,16C455.55555555555554,16.416666666666668,477.7777777777778,-9.916666666666668,533.3333333333334,-7C588.8888888888889,-4.083333333333333,611.1111111111112,28.958333333333332,666.6666666666667,30C722.2222222222223,31.041666666666668,772.2222222222223,4.666666666666666,800,-2" transform="matrix(1,0,0,1,0,3050)"></path><path d="M10,10C35.69444444444444,12.708333333333332,79.86111111111111,26.958333333333332,133.33333333333334,23C186.80555555555557,19.041666666666668,211.11111111111114,-7.541666666666666,266.6666666666667,-9C322.22222222222223,-10.458333333333334,344.44444444444446,15.583333333333334,400,16C455.55555555555554,16.416666666666668,477.7777777777778,-9.916666666666668,533.3333333333334,-7C588.8888888888889,-4.083333333333333,611.1111111111112,28.958333333333332,666.6666666666667,30C722.2222222222223,31.041666666666668,772.2222222222223,4.666666666666666,800,-2" transform="matrix(1,0,0,1,0,2989)"></path><path d="M10,10C35.69444444444444,12.708333333333332,79.86111111111111,26.958333333333332,133.33333333333334,23C186.80555555555557,19.041666666666668,211.11111111111114,-7.541666666666666,266.6666666666667,-9C322.22222222222223,-10.458333333333334,344.44444444444446,15.583333333333334,400,16C455.55555555555554,16.416666666666668,477.7777777777778,-9.916666666666668,533.3333333333334,-7C588.8888888888889,-4.083333333333333,611.1111111111112,28.958333333333332,666.6666666666667,30C722.2222222222223,31.041666666666668,772.2222222222223,4.666666666666666,800,-2" transform="matrix(1,0,0,1,0,2928)"></path><path d="M10,10C35.69444444444444,12.708333333333332,79.86111111111111,26.958333333333332,133.33333333333334,23C186.80555555555557,19.041666666666668,211.11111111111114,-7.541666666666666,266.6666666666667,-9C322.22222222222223,-10.458333333333334,344.44444444444446,15.583333333333334,400,16C455.55555555555554,16.416666666666668,477.7777777777778,-9.916666666666668,533.3333333333334,-7C588.8888888888889,-4.083333333333333,611.1111111111112,28.958333333333332,666.6666666666667,30C722.2222222222223,31.041666666666668,772.2222222222223,4.666666666666666,800,-2" transform="matrix(1,0,0,1,0,2867)"></path><path d="M10,10C35.69444444444444,12.708333333333332,79.86111111111111,26.958333333333332,133.33333333333334,23C186.80555555555557,19.041666666666668,211.11111111111114,-7.541666666666666,266.6666666666667,-9C322.22222222222223,-10.458333333333334,344.44444444444446,15.583333333333334,400,16C455.55555555555554,16.416666666666668,477.7777777777778,-9.916666666666668,533.3333333333334,-7C588.8888888888889,-4.083333333333333,611.1111111111112,28.958333333333332,666.6666666666667,30C722.2222222222223,31.041666666666668,772.2222222222223,4.666666666666666,800,-2" transform="matrix(1,0,0,1,0,2806)"></path><path d="M10,10C35.69444444444444,12.708333333333332,79.86111111111111,26.958333333333332,133.33333333333334,23C186.80555555555557,19.041666666666668,211.11111111111114,-7.541666666666666,266.6666666666667,-9C322.22222222222223,-10.458333333333334,344.44444444444446,15.583333333333334,400,16C455.55555555555554,16.416666666666668,477.7777777777778,-9.916666666666668,533.3333333333334,-7C588.8888888888889,-4.083333333333333,611.1111111111112,28.958333333333332,666.6666666666667,30C722.2222222222223,31.041666666666668,772.2222222222223,4.666666666666666,800,-2" transform="matrix(1,0,0,1,0,2745)"></path><path d="M10,10C35.69444444444444,12.708333333333332,79.86111111111111,26.958333333333332,133.33333333333334,23C186.80555555555557,19.041666666666668,211.11111111111114,-7.541666666666666,266.6666666666667,-9C322.22222222222223,-10.458333333333334,344.44444444444446,15.583333333333334,400,16C455.55555555555554,16.416666666666668,477.7777777777778,-9.916666666666668,533.3333333333334,-7C588.8888888888889,-4.083333333333333,611.1111111111112,28.958333333333332,666.6666666666667,30C722.2222222222223,31.041666666666668,772.2222222222223,4.666666666666666,800,-2" transform="matrix(1,0,0,1,0,2684)"></path><path d="M10,10C35.69444444444444,12.708333333333332,79.86111111111111,26.958333333333332,133.33333333333334,23C186.80555555555557,19.041666666666668,211.11111111111114,-7.541666666666666,266.6666666666667,-9C322.22222222222223,-10.458333333333334,344.44444444444446,15.583333333333334,400,16C455.55555555555554,16.416666666666668,477.7777777777778,-9.916666666666668,533.3333333333334,-7C588.8888888888889,-4.083333333333333,611.1111111111112,28.958333333333332,666.6666666666667,30C722.2222222222223,31.041666666666668,772.2222222222223,4.666666666666666,800,-2" transform="matrix(1,0,0,1,0,2623)"></path><path d="M10,10C35.69444444444444,12.708333333333332,79.86111111111111,26.958333333333332,133.33333333333334,23C186.80555555555557,19.041666666666668,211.11111111111114,-7.541666666666666,266.6666666666667,-9C322.22222222222223,-10.458333333333334,344.44444444444446,15.583333333333334,400,16C455.55555555555554,16.416666666666668,477.7777777777778,-9.916666666666668,533.3333333333334,-7C588.8888888888889,-4.083333333333333,611.1111111111112,28.958333333333332,666.6666666666667,30C722.2222222222223,31.041666666666668,772.2222222222223,4.666666666666666,800,-2" transform="matrix(1,0,0,1,0,2562)"></path><path d="M10,10C35.69444444444444,12.708333333333332,79.86111111111111,26.958333333333332,133.33333333333334,23C186.80555555555557,19.041666666666668,211.11111111111114,-7.541666666666666,266.6666666666667,-9C322.22222222222223,-10.458333333333334,344.44444444444446,15.583333333333334,400,16C455.55555555555554,16.416666666666668,477.7777777777778,-9.916666666666668,533.3333333333334,-7C588.8888888888889,-4.083333333333333,611.1111111111112,28.958333333333332,666.6666666666667,30C722.2222222222223,31.041666666666668,772.2222222222223,4.666666666666666,800,-2" transform="matrix(1,0,0,1,0,2501)"></path><path d="M10,10C35.69444444444444,12.708333333333332,79.86111111111111,26.958333333333332,133.33333333333334,23C186.80555555555557,19.041666666666668,211.11111111111114,-7.541666666666666,266.6666666666667,-9C322.22222222222223,-10.458333333333334,344.44444444444446,15.583333333333334,400,16C455.55555555555554,16.416666666666668,477.7777777777778,-9.916666666666668,533.3333333333334,-7C588.8888888888889,-4.083333333333333,611.1111111111112,28.958333333333332,666.6666666666667,30C722.2222222222223,31.041666666666668,772.2222222222223,4.666666666666666,800,-2" transform="matrix(1,0,0,1,0,2440)"></path><path d="M10,10C35.69444444444444,12.708333333333332,79.86111111111111,26.958333333333332,133.33333333333334,23C186.80555555555557,19.041666666666668,211.11111111111114,-7.541666666666666,266.6666666666667,-9C322.22222222222223,-10.458333333333334,344.44444444444446,15.583333333333334,400,16C455.55555555555554,16.416666666666668,477.7777777777778,-9.916666666666668,533.3333333333334,-7C588.8888888888889,-4.083333333333333,611.1111111111112,28.958333333333332,666.6666666666667,30C722.2222222222223,31.041666666666668,772.2222222222223,4.666666666666666,800,-2" transform="matrix(1,0,0,1,0,2379)"></path><path d="M10,10C35.69444444444444,12.708333333333332,79.86111111111111,26.958333333333332,133.33333333333334,23C186.80555555555557,19.041666666666668,211.11111111111114,-7.541666666666666,266.6666666666667,-9C322.22222222222223,-10.458333333333334,344.44444444444446,15.583333333333334,400,16C455.55555555555554,16.416666666666668,477.7777777777778,-9.916666666666668,533.3333333333334,-7C588.8888888888889,-4.083333333333333,611.1111111111112,28.958333333333332,666.6666666666667,30C722.2222222222223,31.041666666666668,772.2222222222223,4.666666666666666,800,-2" transform="matrix(1,0,0,1,0,2318)"></path><path d="M10,10C35.69444444444444,12.708333333333332,79.86111111111111,26.958333333333332,133.33333333333334,23C186.80555555555557,19.041666666666668,211.11111111111114,-7.541666666666666,266.6666666666667,-9C322.22222222222223,-10.458333333333334,344.44444444444446,15.583333333333334,400,16C455.55555555555554,16.416666666666668,477.7777777777778,-9.916666666666668,533.3333333333334,-7C588.8888888888889,-4.083333333333333,611.1111111111112,28.958333333333332,666.6666666666667,30C722.2222222222223,31.041666666666668,772.2222222222223,4.666666666666666,800,-2" transform="matrix(1,0,0,1,0,2257)"></path><path d="M10,10C35.69444444444444,12.708333333333332,79.86111111111111,26.958333333333332,133.33333333333334,23C186.80555555555557,19.041666666666668,211.11111111111114,-7.541666666666666,266.6666666666667,-9C322.22222222222223,-10.458333333333334,344.44444444444446,15.583333333333334,400,16C455.55555555555554,16.416666666666668,477.7777777777778,-9.916666666666668,533.3333333333334,-7C588.8888888888889,-4.083333333333333,611.1111111111112,28.958333333333332,666.6666666666667,30C722.2222222222223,31.041666666666668,772.2222222222223,4.666666666666666,800,-2" transform="matrix(1,0,0,1,0,2196)"></path><path d="M10,10C35.69444444444444,12.708333333333332,79.86111111111111,26.958333333333332,133.33333333333334,23C186.80555555555557,19.041666666666668,211.11111111111114,-7.541666666666666,266.6666666666667,-9C322.22222222222223,-10.458333333333334,344.44444444444446,15.583333333333334,400,16C455.55555555555554,16.416666666666668,477.7777777777778,-9.916666666666668,533.3333333333334,-7C588.8888888888889,-4.083333333333333,611.1111111111112,28.958333333333332,666.6666666666667,30C722.2222222222223,31.041666666666668,772.2222222222223,4.666666666666666,800,-2" transform="matrix(1,0,0,1,0,2135)"></path><path d="M10,10C35.69444444444444,12.708333333333332,79.86111111111111,26.958333333333332,133.33333333333334,23C186.80555555555557,19.041666666666668,211.11111111111114,-7.541666666666666,266.6666666666667,-9C322.22222222222223,-10.458333333333334,344.44444444444446,15.583333333333334,400,16C455.55555555555554,16.416666666666668,477.7777777777778,-9.916666666666668,533.3333333333334,-7C588.8888888888889,-4.083333333333333,611.1111111111112,28.958333333333332,666.6666666666667,30C722.2222222222223,31.041666666666668,772.2222222222223,4.666666666666666,800,-2" transform="matrix(1,0,0,1,0,2074)"></path><path d="M10,10C35.69444444444444,12.708333333333332,79.86111111111111,26.958333333333332,133.33333333333334,23C186.80555555555557,19.041666666666668,211.11111111111114,-7.541666666666666,266.6666666666667,-9C322.22222222222223,-10.458333333333334,344.44444444444446,15.583333333333334,400,16C455.55555555555554,16.416666666666668,477.7777777777778,-9.916666666666668,533.3333333333334,-7C588.8888888888889,-4.083333333333333,611.1111111111112,28.958333333333332,666.6666666666667,30C722.2222222222223,31.041666666666668,772.2222222222223,4.666666666666666,800,-2" transform="matrix(1,0,0,1,0,2013)"></path><path d="M10,10C35.69444444444444,12.708333333333332,79.86111111111111,26.958333333333332,133.33333333333334,23C186.80555555555557,19.041666666666668,211.11111111111114,-7.541666666666666,266.6666666666667,-9C322.22222222222223,-10.458333333333334,344.44444444444446,15.583333333333334,400,16C455.55555555555554,16.416666666666668,477.7777777777778,-9.916666666666668,533.3333333333334,-7C588.8888888888889,-4.083333333333333,611.1111111111112,28.958333333333332,666.6666666666667,30C722.2222222222223,31.041666666666668,772.2222222222223,4.666666666666666,800,-2" transform="matrix(1,0,0,1,0,1952)"></path><path d="M10,10C35.69444444444444,12.708333333333332,79.86111111111111,26.958333333333332,133.33333333333334,23C186.80555555555557,19.041666666666668,211.11111111111114,-7.541666666666666,266.6666666666667,-9C322.22222222222223,-10.458333333333334,344.44444444444446,15.583333333333334,400,16C455.55555555555554,16.416666666666668,477.7777777777778,-9.916666666666668,533.3333333333334,-7C588.8888888888889,-4.083333333333333,611.1111111111112,28.958333333333332,666.6666666666667,30C722.2222222222223,31.041666666666668,772.2222222222223,4.666666666666666,800,-2" transform="matrix(1,0,0,1,0,1891)"></path><path d="M10,10C35.69444444444444,12.708333333333332,79.86111111111111,26.958333333333332,133.33333333333334,23C186.80555555555557,19.041666666666668,211.11111111111114,-7.541666666666666,266.6666666666667,-9C322.22222222222223,-10.458333333333334,344.44444444444446,15.583333333333334,400,16C455.55555555555554,16.416666666666668,477.7777777777778,-9.916666666666668,533.3333333333334,-7C588.8888888888889,-4.083333333333333,611.1111111111112,28.958333333333332,666.6666666666667,30C722.2222222222223,31.041666666666668,772.2222222222223,4.666666666666666,800,-2" transform="matrix(1,0,0,1,0,1830)"></path><path d="M10,10C35.69444444444444,12.708333333333332,79.86111111111111,26.958333333333332,133.33333333333334,23C186.80555555555557,19.041666666666668,211.11111111111114,-7.541666666666666,266.6666666666667,-9C322.22222222222223,-10.458333333333334,344.44444444444446,15.583333333333334,400,16C455.55555555555554,16.416666666666668,477.7777777777778,-9.916666666666668,533.3333333333334,-7C588.8888888888889,-4.083333333333333,611.1111111111112,28.958333333333332,666.6666666666667,30C722.2222222222223,31.041666666666668,772.2222222222223,4.666666666666666,800,-2" transform="matrix(1,0,0,1,0,1769)"></path><path d="M10,10C35.69444444444444,12.708333333333332,79.86111111111111,26.958333333333332,133.33333333333334,23C186.80555555555557,19.041666666666668,211.11111111111114,-7.541666666666666,266.6666666666667,-9C322.22222222222223,-10.458333333333334,344.44444444444446,15.583333333333334,400,16C455.55555555555554,16.416666666666668,477.7777777777778,-9.916666666666668,533.3333333333334,-7C588.8888888888889,-4.083333333333333,611.1111111111112,28.958333333333332,666.6666666666667,30C722.2222222222223,31.041666666666668,772.2222222222223,4.666666666666666,800,-2" transform="matrix(1,0,0,1,0,1708)"></path><path d="M10,10C35.69444444444444,12.708333333333332,79.86111111111111,26.958333333333332,133.33333333333334,23C186.80555555555557,19.041666666666668,211.11111111111114,-7.541666666666666,266.6666666666667,-9C322.22222222222223,-10.458333333333334,344.44444444444446,15.583333333333334,400,16C455.55555555555554,16.416666666666668,477.7777777777778,-9.916666666666668,533.3333333333334,-7C588.8888888888889,-4.083333333333333,611.1111111111112,28.958333333333332,666.6666666666667,30C722.2222222222223,31.041666666666668,772.2222222222223,4.666666666666666,800,-2" transform="matrix(1,0,0,1,0,1647)"></path><path d="M10,10C35.69444444444444,12.708333333333332,79.86111111111111,26.958333333333332,133.33333333333334,23C186.80555555555557,19.041666666666668,211.11111111111114,-7.541666666666666,266.6666666666667,-9C322.22222222222223,-10.458333333333334,344.44444444444446,15.583333333333334,400,16C455.55555555555554,16.416666666666668,477.7777777777778,-9.916666666666668,533.3333333333334,-7C588.8888888888889,-4.083333333333333,611.1111111111112,28.958333333333332,666.6666666666667,30C722.2222222222223,31.041666666666668,772.2222222222223,4.666666666666666,800,-2" transform="matrix(1,0,0,1,0,1586)"></path><path d="M10,10C35.69444444444444,12.708333333333332,79.86111111111111,26.958333333333332,133.33333333333334,23C186.80555555555557,19.041666666666668,211.11111111111114,-7.541666666666666,266.6666666666667,-9C322.22222222222223,-10.458333333333334,344.44444444444446,15.583333333333334,400,16C455.55555555555554,16.416666666666668,477.7777777777778,-9.916666666666668,533.3333333333334,-7C588.8888888888889,-4.083333333333333,611.1111111111112,28.958333333333332,666.6666666666667,30C722.2222222222223,31.041666666666668,772.2222222222223,4.666666666666666,800,-2" transform="matrix(1,0,0,1,0,1525)"></path><path d="M10,10C35.69444444444444,12.708333333333332,79.86111111111111,26.958333333333332,133.33333333333334,23C186.80555555555557,19.041666666666668,211.11111111111114,-7.541666666666666,266.6666666666667,-9C322.22222222222223,-10.458333333333334,344.44444444444446,15.583333333333334,400,16C455.55555555555554,16.416666666666668,477.7777777777778,-9.916666666666668,533.3333333333334,-7C588.8888888888889,-4.083333333333333,611.1111111111112,28.958333333333332,666.6666666666667,30C722.2222222222223,31.041666666666668,772.2222222222223,4.666666666666666,800,-2" transform="matrix(1,0,0,1,0,1464)"></path><path d="M10,10C35.69444444444444,12.708333333333332,79.86111111111111,26.958333333333332,133.33333333333334,23C186.80555555555557,19.041666666666668,211.11111111111114,-7.541666666666666,266.6666666666667,-9C322.22222222222223,-10.458333333333334,344.44444444444446,15.583333333333334,400,16C455.55555555555554,16.416666666666668,477.7777777777778,-9.916666666666668,533.3333333333334,-7C588.8888888888889,-4.083333333333333,611.1111111111112,28.958333333333332,666.6666666666667,30C722.2222222222223,31.041666666666668,772.2222222222223,4.666666666666666,800,-2" transform="matrix(1,0,0,1,0,1403)"></path><path d="M10,10C35.69444444444444,12.708333333333332,79.86111111111111,26.958333333333332,133.33333333333334,23C186.80555555555557,19.041666666666668,211.11111111111114,-7.541666666666666,266.6666666666667,-9C322.22222222222223,-10.458333333333334,344.44444444444446,15.583333333333334,400,16C455.55555555555554,16.416666666666668,477.7777777777778,-9.916666666666668,533.3333333333334,-7C588.8888888888889,-4.083333333333333,611.1111111111112,28.958333333333332,666.6666666666667,30C722.2222222222223,31.041666666666668,772.2222222222223,4.666666666666666,800,-2" transform="matrix(1,0,0,1,0,1342)"></path><path d="M10,10C35.69444444444444,12.708333333333332,79.86111111111111,26.958333333333332,133.33333333333334,23C186.80555555555557,19.041666666666668,211.11111111111114,-7.541666666666666,266.6666666666667,-9C322.22222222222223,-10.458333333333334,344.44444444444446,15.583333333333334,400,16C455.55555555555554,16.416666666666668,477.7777777777778,-9.916666666666668,533.3333333333334,-7C588.8888888888889,-4.083333333333333,611.1111111111112,28.958333333333332,666.6666666666667,30C722.2222222222223,31.041666666666668,772.2222222222223,4.666666666666666,800,-2" transform="matrix(1,0,0,1,0,1281)"></path><path d="M10,10C35.69444444444444,12.708333333333332,79.86111111111111,26.958333333333332,133.33333333333334,23C186.80555555555557,19.041666666666668,211.11111111111114,-7.541666666666666,266.6666666666667,-9C322.22222222222223,-10.458333333333334,344.44444444444446,15.583333333333334,400,16C455.55555555555554,16.416666666666668,477.7777777777778,-9.916666666666668,533.3333333333334,-7C588.8888888888889,-4.083333333333333,611.1111111111112,28.958333333333332,666.6666666666667,30C722.2222222222223,31.041666666666668,772.2222222222223,4.666666666666666,800,-2" transform="matrix(1,0,0,1,0,1220)"></path><path d="M10,10C35.69444444444444,12.708333333333332,79.86111111111111,26.958333333333332,133.33333333333334,23C186.80555555555557,19.041666666666668,211.11111111111114,-7.541666666666666,266.6666666666667,-9C322.22222222222223,-10.458333333333334,344.44444444444446,15.583333333333334,400,16C455.55555555555554,16.416666666666668,477.7777777777778,-9.916666666666668,533.3333333333334,-7C588.8888888888889,-4.083333333333333,611.1111111111112,28.958333333333332,666.6666666666667,30C722.2222222222223,31.041666666666668,772.2222222222223,4.666666666666666,800,-2" transform="matrix(1,0,0,1,0,1159)"></path><path d="M10,10C35.69444444444444,12.708333333333332,79.86111111111111,26.958333333333332,133.33333333333334,23C186.80555555555557,19.041666666666668,211.11111111111114,-7.541666666666666,266.6666666666667,-9C322.22222222222223,-10.458333333333334,344.44444444444446,15.583333333333334,400,16C455.55555555555554,16.416666666666668,477.7777777777778,-9.916666666666668,533.3333333333334,-7C588.8888888888889,-4.083333333333333,611.1111111111112,28.958333333333332,666.6666666666667,30C722.2222222222223,31.041666666666668,772.2222222222223,4.666666666666666,800,-2" transform="matrix(1,0,0,1,0,1098)"></path><path d="M10,10C35.69444444444444,12.708333333333332,79.86111111111111,26.958333333333332,133.33333333333334,23C186.80555555555557,19.041666666666668,211.11111111111114,-7.541666666666666,266.6666666666667,-9C322.22222222222223,-10.458333333333334,344.44444444444446,15.583333333333334,400,16C455.55555555555554,16.416666666666668,477.7777777777778,-9.916666666666668,533.3333333333334,-7C588.8888888888889,-4.083333333333333,611.1111111111112,28.958333333333332,666.6666666666667,30C722.2222222222223,31.041666666666668,772.2222222222223,4.666666666666666,800,-2" transform="matrix(1,0,0,1,0,1037)"></path><path d="M10,10C35.69444444444444,12.708333333333332,79.86111111111111,26.958333333333332,133.33333333333334,23C186.80555555555557,19.041666666666668,211.11111111111114,-7.541666666666666,266.6666666666667,-9C322.22222222222223,-10.458333333333334,344.44444444444446,15.583333333333334,400,16C455.55555555555554,16.416666666666668,477.7777777777778,-9.916666666666668,533.3333333333334,-7C588.8888888888889,-4.083333333333333,611.1111111111112,28.958333333333332,666.6666666666667,30C722.2222222222223,31.041666666666668,772.2222222222223,4.666666666666666,800,-2" transform="matrix(1,0,0,1,0,976)"></path><path d="M10,10C35.69444444444444,12.708333333333332,79.86111111111111,26.958333333333332,133.33333333333334,23C186.80555555555557,19.041666666666668,211.11111111111114,-7.541666666666666,266.6666666666667,-9C322.22222222222223,-10.458333333333334,344.44444444444446,15.583333333333334,400,16C455.55555555555554,16.416666666666668,477.7777777777778,-9.916666666666668,533.3333333333334,-7C588.8888888888889,-4.083333333333333,611.1111111111112,28.958333333333332,666.6666666666667,30C722.2222222222223,31.041666666666668,772.2222222222223,4.666666666666666,800,-2" transform="matrix(1,0,0,1,0,915)"></path><path d="M10,10C35.69444444444444,12.708333333333332,79.86111111111111,26.958333333333332,133.33333333333334,23C186.80555555555557,19.041666666666668,211.11111111111114,-7.541666666666666,266.6666666666667,-9C322.22222222222223,-10.458333333333334,344.44444444444446,15.583333333333334,400,16C455.55555555555554,16.416666666666668,477.7777777777778,-9.916666666666668,533.3333333333334,-7C588.8888888888889,-4.083333333333333,611.1111111111112,28.958333333333332,666.6666666666667,30C722.2222222222223,31.041666666666668,772.2222222222223,4.666666666666666,800,-2" transform="matrix(1,0,0,1,0,854)"></path><path d="M10,10C35.69444444444444,12.708333333333332,79.86111111111111,26.958333333333332,133.33333333333334,23C186.80555555555557,19.041666666666668,211.11111111111114,-7.541666666666666,266.6666666666667,-9C322.22222222222223,-10.458333333333334,344.44444444444446,15.583333333333334,400,16C455.55555555555554,16.416666666666668,477.7777777777778,-9.916666666666668,533.3333333333334,-7C588.8888888888889,-4.083333333333333,611.1111111111112,28.958333333333332,666.6666666666667,30C722.2222222222223,31.041666666666668,772.2222222222223,4.666666666666666,800,-2" transform="matrix(1,0,0,1,0,793)"></path><path d="M10,10C35.69444444444444,12.708333333333332,79.86111111111111,26.958333333333332,133.33333333333334,23C186.80555555555557,19.041666666666668,211.11111111111114,-7.541666666666666,266.6666666666667,-9C322.22222222222223,-10.458333333333334,344.44444444444446,15.583333333333334,400,16C455.55555555555554,16.416666666666668,477.7777777777778,-9.916666666666668,533.3333333333334,-7C588.8888888888889,-4.083333333333333,611.1111111111112,28.958333333333332,666.6666666666667,30C722.2222222222223,31.041666666666668,772.2222222222223,4.666666666666666,800,-2" transform="matrix(1,0,0,1,0,732)"></path><path d="M10,10C35.69444444444444,12.708333333333332,79.86111111111111,26.958333333333332,133.33333333333334,23C186.80555555555557,19.041666666666668,211.11111111111114,-7.541666666666666,266.6666666666667,-9C322.22222222222223,-10.458333333333334,344.44444444444446,15.583333333333334,400,16C455.55555555555554,16.416666666666668,477.7777777777778,-9.916666666666668,533.3333333333334,-7C588.8888888888889,-4.083333333333333,611.1111111111112,28.958333333333332,666.6666666666667,30C722.2222222222223,31.041666666666668,772.2222222222223,4.666666666666666,800,-2" transform="matrix(1,0,0,1,0,671)"></path><path d="M10,10C35.69444444444444,12.708333333333332,79.86111111111111,26.958333333333332,133.33333333333334,23C186.80555555555557,19.041666666666668,211.11111111111114,-7.541666666666666,266.6666666666667,-9C322.22222222222223,-10.458333333333334,344.44444444444446,15.583333333333334,400,16C455.55555555555554,16.416666666666668,477.7777777777778,-9.916666666666668,533.3333333333334,-7C588.8888888888889,-4.083333333333333,611.1111111111112,28.958333333333332,666.6666666666667,30C722.2222222222223,31.041666666666668,772.2222222222223,4.666666666666666,800,-2" transform="matrix(1,0,0,1,0,610)"></path><path d="M10,10C35.69444444444444,12.708333333333332,79.86111111111111,26.958333333333332,133.33333333333334,23C186.80555555555557,19.041666666666668,211.11111111111114,-7.541666666666666,266.6666666666667,-9C322.22222222222223,-10.458333333333334,344.44444444444446,15.583333333333334,400,16C455.55555555555554,16.416666666666668,477.7777777777778,-9.916666666666668,533.3333333333334,-7C588.8888888888889,-4.083333333333333,611.1111111111112,28.958333333333332,666.6666666666667,30C722.2222222222223,31.041666666666668,772.2222222222223,4.666666666666666,800,-2" transform="matrix(1,0,0,1,0,549)"></path><path d="M10,10C35.69444444444444,12.708333333333332,79.86111111111111,26.958333333333332,133.33333333333334,23C186.80555555555557,19.041666666666668,211.11111111111114,-7.541666666666666,266.6666666666667,-9C322.22222222222223,-10.458333333333334,344.44444444444446,15.583333333333334,400,16C455.55555555555554,16.416666666666668,477.7777777777778,-9.916666666666668,533.3333333333334,-7C588.8888888888889,-4.083333333333333,611.1111111111112,28.958333333333332,666.6666666666667,30C722.2222222222223,31.041666666666668,772.2222222222223,4.666666666666666,800,-2" transform="matrix(1,0,0,1,0,488)"></path><path d="M10,10C35.69444444444444,12.708333333333332,79.86111111111111,26.958333333333332,133.33333333333334,23C186.80555555555557,19.041666666666668,211.11111111111114,-7.541666666666666,266.6666666666667,-9C322.22222222222223,-10.458333333333334,344.44444444444446,15.583333333333334,400,16C455.55555555555554,16.416666666666668,477.7777777777778,-9.916666666666668,533.3333333333334,-7C588.8888888888889,-4.083333333333333,611.1111111111112,28.958333333333332,666.6666666666667,30C722.2222222222223,31.041666666666668,772.2222222222223,4.666666666666666,800,-2" transform="matrix(1,0,0,1,0,427)"></path><path d="M10,10C35.69444444444444,12.708333333333332,79.86111111111111,26.958333333333332,133.33333333333334,23C186.80555555555557,19.041666666666668,211.11111111111114,-7.541666666666666,266.6666666666667,-9C322.22222222222223,-10.458333333333334,344.44444444444446,15.583333333333334,400,16C455.55555555555554,16.416666666666668,477.7777777777778,-9.916666666666668,533.3333333333334,-7C588.8888888888889,-4.083333333333333,611.1111111111112,28.958333333333332,666.6666666666667,30C722.2222222222223,31.041666666666668,772.2222222222223,4.666666666666666,800,-2" transform="matrix(1,0,0,1,0,366)"></path><path d="M10,10C35.69444444444444,12.708333333333332,79.86111111111111,26.958333333333332,133.33333333333334,23C186.80555555555557,19.041666666666668,211.11111111111114,-7.541666666666666,266.6666666666667,-9C322.22222222222223,-10.458333333333334,344.44444444444446,15.583333333333334,400,16C455.55555555555554,16.416666666666668,477.7777777777778,-9.916666666666668,533.3333333333334,-7C588.8888888888889,-4.083333333333333,611.1111111111112,28.958333333333332,666.6666666666667,30C722.2222222222223,31.041666666666668,772.2222222222223,4.666666666666666,800,-2" transform="matrix(1,0,0,1,0,305)"></path><path d="M10,10C35.69444444444444,12.708333333333332,79.86111111111111,26.958333333333332,133.33333333333334,23C186.80555555555557,19.041666666666668,211.11111111111114,-7.541666666666666,266.6666666666667,-9C322.22222222222223,-10.458333333333334,344.44444444444446,15.583333333333334,400,16C455.55555555555554,16.416666666666668,477.7777777777778,-9.916666666666668,533.3333333333334,-7C588.8888888888889,-4.083333333333333,611.1111111111112,28.958333333333332,666.6666666666667,30C722.2222222222223,31.041666666666668,772.2222222222223,4.666666666666666,800,-2" transform="matrix(1,0,0,1,0,244)"></path><path d="M10,10C35.69444444444444,12.708333333333332,79.86111111111111,26.958333333333332,133.33333333333334,23C186.80555555555557,19.041666666666668,211.11111111111114,-7.541666666666666,266.6666666666667,-9C322.22222222222223,-10.458333333333334,344.44444444444446,15.583333333333334,400,16C455.55555555555554,16.416666666666668,477.7777777777778,-9.916666666666668,533.3333333333334,-7C588.8888888888889,-4.083333333333333,611.1111111111112,28.958333333333332,666.6666666666667,30C722.2222222222223,31.041666666666668,772.2222222222223,4.666666666666666,800,-2" transform="matrix(1,0,0,1,0,183)"></path><path d="M10,10C35.69444444444444,12.708333333333332,79.86111111111111,26.958333333333332,133.33333333333334,23C186.80555555555557,19.041666666666668,211.11111111111114,-7.541666666666666,266.6666666666667,-9C322.22222222222223,-10.458333333333334,344.44444444444446,15.583333333333334,400,16C455.55555555555554,16.416666666666668,477.7777777777778,-9.916666666666668,533.3333333333334,-7C588.8888888888889,-4.083333333333333,611.1111111111112,28.958333333333332,666.6666666666667,30C722.2222222222223,31.041666666666668,772.2222222222223,4.666666666666666,800,-2" transform="matrix(1,0,0,1,0,122)"></path><path d="M10,10C35.69444444444444,12.708333333333332,79.86111111111111,26.958333333333332,133.33333333333334,23C186.80555555555557,19.041666666666668,211.11111111111114,-7.541666666666666,266.6666666666667,-9C322.22222222222223,-10.458333333333334,344.44444444444446,15.583333333333334,400,16C455.55555555555554,16.416666666666668,477.7777777777778,-9.916666666666668,533.3333333333334,-7C588.8888888888889,-4.083333333333333,611.1111111111112,28.958333333333332,666.6666666666667,30C722.2222222222223,31.041666666666668,772.2222222222223,4.666666666666666,800,-2" transform="matrix(1,0,0,1,0,61)"></path></g></svg>